<svg xmlns="http://www.w3.org/2000/svg" xmlns:xlink="http://www.w3.org/1999/xlink" fill="#000000" height="800px" width="800px" id="Layer_1" viewBox="0 0 242.132 242.132" xml:space="preserve"><path id="XMLID_231_" d="M227.132,0H121.067C115,0,109.531,3.655,107.209,9.26c-2.321,5.605-1.038,12.057,3.252,16.347 l42.426,42.426L4.394,216.526c-5.858,5.858-5.858,15.355,0,21.213c2.929,2.929,6.768,4.393,10.606,4.393 c3.839,0,7.678-1.464,10.606-4.393L174.099,89.246l42.426,42.426c2.869,2.87,6.706,4.394,10.609,4.394 c1.933,0,3.882-0.374,5.737-1.142c5.605-2.322,9.26-7.791,9.26-13.858V15C242.132,6.716,235.416,0,227.132,0z M212.132,84.852 L157.28,30h54.852V84.852z"></path></svg>