<svg xmlns="http://www.w3.org/2000/svg" xmlns:xlink="http://www.w3.org/1999/xlink" fill="#000000" height="800px" width="800px" id="Layer_1" viewBox="0 0 242.133 242.133" xml:space="preserve"><path id="XMLID_12_" d="M237.739,4.394c-5.857-5.858-15.355-5.858-21.213,0L41.517,179.404l-15.91-15.91 c-4.291-4.291-10.743-5.572-16.347-3.252C3.654,162.563,0,168.033,0,174.1v53.033c0,8.284,6.716,15,15,15h53.033 c0.006-0.001,0.012-0.001,0.019,0c8.285,0,15-6.716,15-15c0-4.377-1.875-8.317-4.865-11.059l-15.458-15.458l175.01-175.009 C243.598,19.749,243.598,10.252,237.739,4.394z"></path></svg>