<svg xmlns="http://www.w3.org/2000/svg" width="512" height="512"><path d="M0 0 C1.15738593 -0.00445784 2.31477187 -0.00891569 3.5072301 -0.01350862 C5.43106793 -0.01323207 5.43106793 -0.01323207 7.39377117 -0.01294994 C8.76136861 -0.01624772 10.12896507 -0.0199731 11.49656028 -0.02409142 C15.26771249 -0.03412927 19.03884878 -0.03783107 22.81001246 -0.04048073 C26.87214915 -0.04437847 30.93427317 -0.05395712 34.99640179 -0.0626936 C44.81250715 -0.08247237 54.62861357 -0.09252571 64.44473389 -0.10142139 C69.06395395 -0.10580171 73.68317286 -0.11116916 78.30239201 -0.11641026 C93.6517189 -0.13342346 109.00104507 -0.14791874 124.35037994 -0.155159 C128.33519587 -0.15706898 132.32001179 -0.1589893 136.30482769 -0.16094494 C137.79049001 -0.16167055 137.79049001 -0.16167055 139.30616572 -0.16241082 C155.35908157 -0.17071528 171.41192301 -0.1960588 187.46480636 -0.22852562 C203.93482606 -0.26156536 220.40480791 -0.27960493 236.87486094 -0.28280324 C246.12673346 -0.28497113 255.37849743 -0.29376055 264.63033772 -0.31926441 C272.50785932 -0.34092927 280.38524604 -0.34904266 288.26279406 -0.33929763 C292.28368692 -0.33474072 296.30430122 -0.33671938 300.32515621 -0.35605907 C304.00475526 -0.37360492 307.68387077 -0.37276364 311.36347433 -0.35716178 C313.32812031 -0.35363902 315.29277087 -0.36987583 317.2573474 -0.38676625 C319.00516117 -0.37389492 319.00516117 -0.37389492 320.7882843 -0.36076355 C321.79383875 -0.36174036 322.7993932 -0.36271717 323.835419 -0.36372358 C329.29971054 0.62660572 332.40887742 4.90089867 335.70790386 9.07172108 C336.48391949 10.03980701 337.25993511 11.00789295 338.05946636 12.00531483 C338.46842144 12.51562244 338.87737652 13.02593006 339.29872417 13.55170155 C341.5155521 16.28354159 343.8014426 18.95634698 346.08290386 21.63422108 C350.20459706 26.48322999 354.2528313 31.38584621 358.27040386 36.32172108 C360.84436778 39.45221774 363.45859473 42.54594568 366.08290386 45.63422108 C370.2039202 50.48381489 374.2528174 55.38582914 378.27040386 60.32172108 C380.84436778 63.45221774 383.45859473 66.54594568 386.08290386 69.63422108 C390.19918642 74.4782442 394.24501534 79.37322152 398.25477886 84.30609608 C400.43422769 86.95361445 402.646554 89.56805714 404.87465191 92.17450428 C407.12647106 94.81463312 409.35417129 97.47457666 411.58290386 100.13422108 C412.1797398 100.82644764 412.77657574 101.5186742 413.39149761 102.23187733 C416.04802421 105.53560304 417.56862241 108.61072757 417.23915386 112.93500233 C415.89728735 117.43185261 412.8217114 120.86569872 409.91347027 124.47064686 C407.95871324 126.91463115 406.07553106 129.41152012 404.18324566 131.90399647 C402.53138071 134.07699898 400.87068268 136.24299797 399.20790386 138.40765858 C395.31963448 143.47309084 391.45079397 148.55321998 387.58290386 153.63422108 C382.23556608 160.65609318 376.88041683 167.67188493 371.51649761 174.68109608 C367.19767536 180.32633795 362.88931268 185.9795059 358.58290386 191.63422108 C353.23541152 198.65597572 347.88041709 205.67188458 342.51649761 212.68109608 C338.19767536 218.32633795 333.88931268 223.9795059 329.58290386 229.63422108 C324.75595324 235.97245605 319.92465481 242.30728433 315.08290386 248.63422108 C307.56743664 258.45576912 300.07564901 268.29533451 292.58290386 278.13422108 C284.56937458 288.65696062 276.55397886 299.1781723 268.51576519 309.68207264 C264.19716499 315.32697209 259.88906614 320.97982962 255.58290386 326.63422108 C250.23541152 333.65597572 244.88041709 340.67188458 239.51649761 347.68109608 C235.19767536 353.32633795 230.88931268 358.9795059 226.58290386 364.63422108 C221.23541152 371.65597572 215.88041709 378.67188458 210.51649761 385.68109608 C205.51457388 392.21923717 200.52674178 398.76808144 195.53969097 405.31757069 C190.71925191 411.64690547 185.88924663 417.96883013 181.04628277 424.28094959 C178.63368225 427.43028894 176.23693158 430.58865578 173.88368511 433.78265858 C173.47046001 434.34203114 173.05723492 434.90140369 172.63148785 435.47772694 C171.54574574 436.95241182 170.46638327 438.431788 169.38759136 439.91156483 C166.65420765 443.27800494 165.0460961 444.08192518 160.70790386 444.57172108 C157.48170815 444.76782317 156.67037681 444.21049409 154.17274761 442.03265858 C151.34732232 438.87056873 148.65110882 435.64632974 146.02040386 432.32172108 C145.50083111 431.66864979 144.98125835 431.0155785 144.44594097 430.34271717 C139.73026599 424.38330866 135.17260526 418.310641 130.63368511 412.21625233 C127.56625286 408.10106793 124.45524445 404.02033636 121.33290386 399.94672108 C116.40588454 393.51706153 111.49003864 387.07907282 106.58290386 380.63422108 C101.75602304 374.29593321 96.9246837 367.96113538 92.08290386 361.63422108 C86.55281661 354.40787265 81.03745867 347.17037274 75.52431011 339.93109608 C71.38309401 334.49425958 67.23637525 329.0616999 63.08290386 323.63422108 C57.55281661 316.40787265 52.03745867 309.17037274 46.52431011 301.93109608 C42.38309401 296.49425958 38.23637525 291.0616999 34.08290386 285.63422108 C28.55281661 278.40787265 23.03745867 271.17037274 17.52431011 263.93109608 C13.38309401 258.49425958 9.23637525 253.0616999 5.08290386 247.63422108 C-0.44718339 240.40787265 -5.96254133 233.17037274 -11.47568989 225.93109608 C-15.61690599 220.49425958 -19.76362475 215.0616999 -23.91709614 209.63422108 C-29.44718339 202.40787265 -34.96254133 195.17037274 -40.47568989 187.93109608 C-44.61690599 182.49425958 -48.76362475 177.0616999 -52.91709614 171.63422108 C-58.44085929 164.41613656 -63.95140814 157.1880463 -69.4559145 149.955266 C-73.22809661 145.00031579 -77.01233718 140.05506011 -80.81089497 135.12030506 C-82.90743636 132.38943337 -84.98901971 129.64741816 -87.06748676 126.90277576 C-88.28786731 125.30356508 -89.53088958 123.72169495 -90.77647114 122.14203358 C-96.68946316 114.36053607 -96.68946316 114.36053607 -96.15147114 109.17718983 C-94.43686139 104.40729144 -90.74521359 100.85079387 -87.41709614 97.13422108 C-86.06231781 95.54877789 -84.71949571 93.95371361 -83.37730122 92.35760975 C-81.97043297 90.68583251 -80.55557551 89.02107335 -79.13975239 87.35687733 C-76.69774347 84.47693196 -74.30029404 81.56312441 -71.91709614 78.63422108 C-68.16921816 74.02968527 -64.34726169 69.49402916 -60.50303364 64.97015858 C-57.60464791 61.55362568 -54.74554513 58.1091727 -51.91709614 54.63422108 C-48.16921816 50.02968527 -44.34726169 45.49402916 -40.50303364 40.97015858 C-37.60464791 37.55362568 -34.74554513 34.1091727 -31.91709614 30.63422108 C-28.17617423 26.0382313 -24.364139 21.50845737 -20.52280903 16.99652576 C-16.66488933 12.45555339 -12.9143833 7.83607047 -9.19443989 3.18109608 C-6.28716602 -0.16706109 -4.28417931 0.00762392 0 0 Z M14.58290386 18.13422108 C18.97269283 26.18216751 23.40990371 34.17761569 27.95790386 42.13422108 C28.29828686 42.73017078 28.63866985 43.32612049 28.98936749 43.94012928 C35.52713532 55.37862075 42.21735187 66.72287249 48.96181011 78.04047108 C52.54146834 84.04894051 56.06945374 90.08684452 59.58290386 96.13422108 C64.58453 91.9411316 69.28881057 87.57230698 73.89515972 82.95135975 C74.58868542 82.25958637 75.28221111 81.567813 75.99675274 80.85507679 C78.26625664 78.58994031 80.5321236 76.32120651 82.79774761 74.05218983 C84.37943436 72.47117712 85.9612695 70.89031285 87.54324627 69.30959034 C90.84560919 66.00869706 94.14616782 62.70601309 97.44545269 59.40204334 C101.68479521 55.15697585 105.92864887 50.91645093 110.17383766 46.67723083 C113.43456541 43.42010462 116.69292254 40.16061536 119.95055103 36.90038967 C121.51560303 35.33466872 123.08140334 33.76969541 124.64795017 32.20547009 C126.82652427 30.02941883 129.00189563 27.85021708 131.17640972 25.67010975 C132.1557674 24.69378841 132.1557674 24.69378841 133.15491009 23.69774342 C136.15292795 21.29152049 136.15292795 21.29152049 137.58290386 18.13422108 C96.99290386 18.13422108 56.40290386 18.13422108 14.58290386 18.13422108 Z M183.58290386 18.13422108 C188.17402576 23.54970273 188.17402576 23.54970273 192.99986553 28.67143726 C193.60551846 29.27846485 194.21117138 29.88549244 194.83517742 30.5109148 C195.4775082 31.14965031 196.11983898 31.78838581 196.78163433 32.44647694 C197.475014 33.14000263 198.16839367 33.83352833 198.88278484 34.54806995 C201.15285558 36.81744948 203.42643716 39.08327603 205.70009136 41.34906483 C207.28357225 42.93067872 208.86683108 44.51251497 210.44987774 46.09456348 C214.60030478 50.24118752 218.75372706 54.38479859 222.907794 58.52777576 C227.15288346 62.76260329 231.39511437 67.00029227 235.63759136 71.2377367 C243.94991048 79.53935763 252.26539875 87.8377963 260.58290386 96.13422108 C263.26372679 92.83204926 265.5923269 89.60900794 267.69227886 85.90765858 C268.27396832 84.88937977 268.85565777 83.87110096 269.45497417 82.82196522 C270.38454937 81.18215687 270.38454937 81.18215687 271.33290386 79.50922108 C272.67526394 77.16075319 274.01867657 74.81293142 275.36415386 72.46625233 C275.70956219 71.86322788 276.05497051 71.26020344 276.41084576 70.63890553 C280.15239914 64.11900575 283.98902516 57.6566496 287.83290386 51.19672108 C292.61378997 43.15202771 297.38237684 35.1011986 302.08290386 27.00922108 C302.54599957 26.21523914 303.00909527 25.42125721 303.48622417 24.60321522 C305.61280215 21.5450697 305.61280215 21.5450697 306.58290386 18.13422108 C265.99290386 18.13422108 225.40290386 18.13422108 183.58290386 18.13422108 Z M158.10303593 23.36520004 C157.52230635 23.94647439 156.94157677 24.52774874 156.34324932 25.12663746 C155.67578182 25.78991047 155.00831432 26.45318348 154.32062054 27.13655567 C153.58910275 27.87369297 152.85758495 28.61083027 152.10389996 29.37030506 C151.33307583 30.13923084 150.5622517 30.90815662 149.76806927 31.70038319 C147.2092409 34.25549235 144.65770815 36.81775661 142.10634136 39.38031483 C140.33836455 41.14948283 138.57001894 42.91828234 136.80131817 44.68672657 C133.09097006 48.3986415 129.38388877 52.1137867 125.67958355 55.83173084 C121.39079979 60.13624661 117.09680535 64.43550699 112.79978216 68.73179668 C108.67321666 72.85775279 104.54956566 76.9866083 100.42740536 81.11696529 C98.66963587 82.87792888 96.91124951 84.63827693 95.15225124 86.39801311 C92.70000699 88.85241275 90.25107709 91.31006929 87.80311871 93.76874256 C87.06755245 94.50385563 86.3319862 95.2389687 85.57413006 95.99635792 C84.91230221 96.66245075 84.25047436 97.32854359 83.56859112 98.01482105 C82.98861559 98.59647243 82.40864006 99.1781238 81.81108952 99.77740097 C80.47105561 100.95276099 80.47105561 100.95276099 80.58290386 102.13422108 C133.38290386 102.13422108 186.18290386 102.13422108 240.58290386 102.13422108 C235.95822004 96.68525673 235.95822004 96.68525673 231.10347271 91.52107716 C230.4838818 90.89722126 229.86429089 90.27336536 229.22592449 89.63060474 C228.56803432 88.97316776 227.91014416 88.31573078 227.23231792 87.63837147 C226.5226437 86.92533863 225.81296947 86.21230579 225.08178997 85.4776659 C222.75665886 83.1431047 220.42783987 80.81226754 218.09852886 78.48187733 C216.47514399 76.85527731 214.85183376 75.2286028 213.22859478 73.60185719 C209.83789328 70.20518649 206.44514987 66.8105704 203.05116558 63.41718006 C198.69236329 59.05847995 194.34051188 54.69290938 189.99034786 50.32559013 C186.64643875 46.97059994 183.2980326 43.62012657 179.94831371 40.27093792 C178.34066896 38.66210974 176.73465322 37.05165208 175.13027477 35.43956661 C172.89684159 33.19640053 170.6572402 30.95958223 168.41591167 28.72430897 C167.41693104 27.71689907 167.41693104 27.71689907 166.39776897 26.68913746 C165.78945736 26.08502033 165.18114574 25.48090321 164.55440044 24.8584795 C164.02570984 24.32924413 163.49701923 23.80000875 162.9523077 23.25473595 C160.95222738 21.61816997 160.06962547 21.72935788 158.10303593 23.36520004 Z M-3.41709614 25.13422108 C-8.97205395 30.85037187 -14.02272386 37.02601559 -19.03428364 43.21625233 C-21.62465462 46.38839515 -24.2639248 49.51465402 -26.91709614 52.63422108 C-30.29006551 56.60313996 -33.62886592 60.59439538 -36.91709614 64.63422108 C-40.20533738 68.67406032 -43.54456141 72.66492195 -46.91709614 76.63422108 C-53.99060889 84.96809176 -60.85515982 93.38497265 -67.41709614 102.13422108 C-31.44709614 102.13422108 4.52290386 102.13422108 41.58290386 102.13422108 C40.18783295 97.94900833 39.20925544 95.18085799 37.03602886 91.57953358 C36.52829937 90.73028309 36.02056988 89.8810326 35.49745464 89.00604725 C34.94815289 88.09959461 34.39885113 87.19314198 33.83290386 86.25922108 C32.64724872 84.27920681 31.46237948 82.29872177 30.27821636 80.31781483 C29.66623394 79.29671619 29.05425152 78.27561756 28.42372417 77.22357655 C25.47793604 72.27980957 22.59597498 67.29934102 19.70790386 62.32172108 C14.6093395 53.56418699 9.463483 44.83595274 4.27040386 36.13422108 C3.61765484 35.03489246 2.96490582 33.93556385 2.29237652 32.80292225 C1.69086773 31.79850086 1.08935894 30.79407948 0.46962261 29.75922108 C-0.0644521 28.8646117 -0.5985268 27.97000233 -1.14878559 27.04828358 C-1.56732807 26.41664295 -1.98587055 25.78500233 -2.41709614 25.13422108 C-2.74709614 25.13422108 -3.07709614 25.13422108 -3.41709614 25.13422108 Z M323.58290386 25.13422108 C322.72483292 26.43050111 321.9192492 27.76151041 321.13368511 29.10297108 C320.36713604 30.40597157 320.36713604 30.40597157 319.58510113 31.7352953 C319.02750103 32.6919408 318.46990093 33.64858631 317.89540386 34.63422108 C317.31524517 35.62309315 316.73508648 36.61196522 316.13734722 37.63080311 C314.28182633 40.7962645 312.43189322 43.96494079 310.58290386 47.13422108 C309.42150345 49.1212341 308.2600463 51.10821396 307.09852886 53.09515858 C304.1941765 58.06730139 301.2949316 63.04240337 298.39735699 68.01849842 C295.23195739 73.45402447 292.06379954 78.8879411 288.89540386 84.32172108 C288.3070274 85.33154041 287.71865093 86.34135975 287.11244488 87.38177967 C286.56257915 88.32489002 286.01271343 89.26800037 285.44618511 90.23968983 C284.96447857 91.06622059 284.48277203 91.89275135 283.98646832 92.7443285 C282.98474137 94.44999993 281.95384808 96.13867964 280.90394878 97.81512928 C279.41791513 99.97903185 279.41791513 99.97903185 279.58290386 102.13422108 C315.55290386 102.13422108 351.52290386 102.13422108 388.58290386 102.13422108 C384.60315488 96.8278891 380.64150867 91.77230348 376.27040386 86.82172108 C371.68739064 81.58380605 367.20659003 76.28507177 362.82509136 70.87640858 C360.28036704 67.76421959 357.68672161 64.69695611 355.08290386 61.63422108 C351.71001785 57.66522956 348.37113612 53.67404928 345.08290386 49.63422108 C340.8419532 44.42456406 336.51068778 39.29595635 332.16102886 34.17718983 C330.82321522 32.59816433 329.48736858 31.01719368 328.17860699 29.41400623 C326.99984883 27.97099993 325.7937532 26.55040675 324.58290386 25.13422108 C324.25290386 25.13422108 323.92290386 25.13422108 323.58290386 25.13422108 Z M-68.41709614 120.13422108 C-64.61457888 125.83799697 -60.91936747 131.1894303 -56.60459614 136.44672108 C-52.29174626 141.7722567 -48.09824801 147.15986267 -44.01084614 152.66156483 C-40.60089578 157.24368562 -37.13050121 161.77996346 -33.66709614 166.32172108 C-32.97261372 167.23260487 -32.27813129 168.14348866 -31.56260395 169.08197498 C-26.83103513 175.28541618 -22.09307439 181.48395256 -17.35166645 187.67987537 C-12.34426725 194.22499799 -7.3514236 200.78117629 -2.35850239 207.33734608 C1.78271371 212.77418257 5.92943247 218.20674225 10.08290386 223.63422108 C15.61299111 230.86056951 21.12834905 238.09806941 26.64149761 245.33734608 C30.78271371 250.77418257 34.92943247 256.20674225 39.08290386 261.63422108 C44.61299111 268.86056951 50.12834905 276.09806941 55.64149761 283.33734608 C59.78271371 288.77418257 63.92943247 294.20674225 68.08290386 299.63422108 C73.61299111 306.86056951 79.12834905 314.09806941 84.64149761 321.33734608 C88.78271371 326.77418257 92.92943247 332.20674225 97.08290386 337.63422108 C101.23758173 343.06327644 105.38569621 348.49726782 109.52772808 353.93597889 C110.88822254 355.72217333 112.24921802 357.50798629 113.61073589 359.29340076 C116.88913687 363.59296913 120.16128076 367.8969612 123.41884136 372.21234608 C124.01696636 373.00189686 124.61509136 373.79144764 125.23134136 374.6049242 C126.35690025 376.09081473 127.47944805 377.57899244 128.59852886 379.06976795 C131.12465728 382.62256683 131.12465728 382.62256683 134.58290386 385.13422108 C133.18733848 376.72213532 130.69187944 368.75183188 128.05946636 360.65765858 C127.60130892 359.23448778 127.14370747 357.8111379 126.68661785 356.38762379 C125.70986835 353.34865004 124.7300255 350.31069944 123.74766827 347.27353382 C121.37974346 339.9511117 119.02917926 332.62311021 116.6782465 325.29521847 C116.14162605 323.62267837 115.60482196 321.95019719 115.06783772 320.27777386 C110.00433963 304.50568847 105.04201642 288.70343555 100.12338924 272.88566303 C92.48026688 248.30866488 84.71058915 223.77409755 76.87135601 199.25897694 C70.12279494 178.15402725 63.44538899 157.02891825 56.88441753 135.86468983 C56.59586895 134.93577427 56.30732037 134.00685871 56.01002789 133.0497942 C55.47899879 131.33967895 54.94943649 129.62910724 54.42164898 127.91798878 C53.21412206 123.94415345 53.21412206 123.94415345 51.58290386 120.13422108 C11.98290386 120.13422108 -27.61709614 120.13422108 -68.41709614 120.13422108 Z M70.58290386 120.13422108 C72.89278038 128.6894678 72.89278038 128.6894678 75.44203472 137.1505785 C75.77848507 138.2070911 76.11493542 139.26360371 76.46158123 140.35213184 C76.82001614 141.47002598 77.17845104 142.58792011 77.54774761 143.73968983 C78.13868957 145.59361279 78.72962773 147.44753697 79.32042503 149.30150604 C79.94984609 151.27547307 80.58029705 153.24910855 81.21101665 155.22266102 C83.47804644 162.31746068 85.73593403 169.41517182 87.99306011 176.51312733 C88.22586178 177.24504543 88.45866344 177.97696354 88.69851971 178.73106098 C93.46936669 193.73468381 98.16490147 208.76133446 102.84567928 223.79325199 C110.22507544 247.48989081 117.7114188 271.15043171 125.27234173 294.78975773 C133.1576308 319.44364815 140.93400149 344.12991944 148.621068 368.84634209 C149.22870809 370.79985748 149.83676984 372.75324118 150.44493389 374.70659351 C151.17844882 377.06346324 151.91090945 379.42066151 152.64201641 381.7782793 C153.61334225 384.89983484 154.59603799 388.0175473 155.58290386 391.13422108 C155.93479778 392.26342976 156.2866917 393.39263844 156.64924908 394.55606556 C156.99844402 395.64912006 157.34763897 396.74217457 157.70741558 397.86835194 C158.0194392 398.85548679 158.33146282 399.84262165 158.6529417 400.85966969 C159.35762694 403.29602285 159.35762694 403.29602285 161.58290386 404.13422108 C161.78461193 403.4856464 161.98632 402.83707172 162.19414043 402.16884327 C172.21500338 369.95563355 182.30628339 337.7668209 192.58290386 305.63422108 C199.87178293 282.8430513 207.0778109 260.02823762 214.19083309 237.18158436 C222.34856118 210.98145289 230.65989715 184.83160252 239.01768208 158.69466114 C241.20887208 151.84206809 243.39710822 144.98853702 245.58290386 138.13422108 C246.03575756 136.71593006 246.03575756 136.71593006 246.49775982 135.2689867 C247.23899562 132.94381798 247.97645155 130.61750385 248.71181011 128.29047108 C249.27170635 126.52413319 249.27170635 126.52413319 249.84291363 124.7221117 C250.67454545 122.26233413 250.67454545 122.26233413 250.58290386 120.13422108 C191.18290386 120.13422108 131.78290386 120.13422108 70.58290386 120.13422108 Z M269.58290386 120.13422108 C262.68575613 140.69316526 262.68575613 140.69316526 256.10243511 161.34515858 C255.33486745 163.81456287 254.56728884 166.28396376 253.79970074 168.7533617 C253.20366197 170.6764441 252.60762362 172.59952662 252.0116148 174.52261829 C250.04866064 180.8509873 248.07572719 187.17625702 246.10243511 193.50140858 C245.87695114 194.22432339 245.65146717 194.9472382 245.41915035 195.69205952 C240.441675 211.64318126 235.36408331 227.56190253 230.27295589 243.47704411 C221.90144862 269.64727745 213.62752451 295.84603207 205.46498394 322.08221912 C201.89396466 333.55777098 198.31346021 345.02893653 194.63368511 356.47015858 C194.050511 358.28924924 193.46734028 360.10834099 192.88417339 361.92743397 C191.84671962 365.16165579 190.79821074 368.39197986 189.74257183 371.62030506 C189.29702233 373.00632571 188.85184432 374.39246585 188.40712261 375.77875233 C187.83610821 377.53215931 187.83610821 377.53215931 187.25355816 379.32098866 C186.30825944 382.18962457 186.30825944 382.18962457 187.58290386 385.13422108 C193.8643307 377.64726788 199.77749164 369.94109404 205.61415386 362.10687733 C209.43458096 356.98146501 213.34353611 351.92556845 217.24940777 346.86517811 C219.74354907 343.62763475 222.22562189 340.38086083 224.70790386 337.13422108 C225.51795879 336.07473255 225.51795879 336.07473255 226.34437847 334.99384022 C231.45030645 328.3125295 236.54526894 321.62287438 241.64003277 314.9330492 C246.30230706 308.81206766 250.97320648 302.69776579 255.64931011 296.58734608 C259.96813237 290.94210421 264.27649505 285.28893626 268.58290386 279.63422108 C273.9303962 272.61246643 279.28539063 265.59655757 284.64931011 258.58734608 C288.96813237 252.94210421 293.27649505 247.28893626 297.58290386 241.63422108 C302.9303962 234.61246643 308.28539063 227.59655757 313.64931011 220.58734608 C317.96813237 214.94210421 322.27649505 209.28893626 326.58290386 203.63422108 C331.9303962 196.61246643 337.28539063 189.59655757 342.64931011 182.58734608 C346.9681324 176.94210417 351.27648008 171.28892489 355.58290386 165.63422108 C360.47311234 159.21324062 365.36706695 152.79518242 370.27040386 146.38422108 C370.78562603 145.71004139 371.3008482 145.0358617 371.83168316 144.34125233 C374.64010703 140.66778279 377.45555651 136.99989064 380.27821636 133.33734608 C380.88318951 132.55069569 381.48816265 131.7640453 382.11146832 130.95355701 C383.27989847 129.4344539 384.45023875 127.91681761 385.62269878 126.40082264 C386.14194927 125.72503162 386.66119976 125.04924061 387.19618511 124.35297108 C387.88901592 123.45481678 387.88901592 123.45481678 388.59584332 122.53851795 C389.67874484 121.28394923 389.67874484 121.28394923 389.58290386 120.13422108 C349.98290386 120.13422108 310.38290386 120.13422108 269.58290386 120.13422108 Z M134.58290386 385.13422108 C135.58290386 387.13422108 135.58290386 387.13422108 135.58290386 387.13422108 Z M185.58290386 385.13422108 C186.58290386 387.13422108 186.58290386 387.13422108 186.58290386 387.13422108 Z " fill="#000000" transform="translate(95.41709613800049,33.86577892303467)"></path></svg>